<svg id="Layer_1" data-name="Layer 1" xmlns="http://www.w3.org/2000/svg" viewBox="0 0 199.68 77.77"><defs><style>.cls-1{fill:#ed1c24;stroke:#414042;stroke-miterlimit:10;stroke-width:2px;}.cls-2{font-size:42px;fill:#414042;font-family:Kefa-Bold, Kefa;font-weight:700;}</style></defs><title>Logo</title><path class="cls-1" d="M17.49,12.75,15.4,14.91a3.45,3.45,0,0,0-1,2.38V60.76a3.46,3.46,0,0,0,1,2.43l2.09,2.09a3.43,3.43,0,0,0,5.85-2.43V15.13A3.43,3.43,0,0,0,17.49,12.75Z"/><path class="cls-1" d="M45.5,33l.62-2.47a3.58,3.58,0,0,0-.37-2.66l-8-13.95a3.63,3.63,0,0,0-2.18-1.67l-2.42-.65a3.59,3.59,0,0,0-4,5.26l9.85,17.06A3.58,3.58,0,0,0,45.5,33Z"/><path class="cls-1" d="M33.07,66l2.58-.73a3.57,3.57,0,0,0,2.09-1.64l8.07-14A3.53,3.53,0,0,0,46.17,47l-.69-2.55A3.54,3.54,0,0,0,39,43.6L29,60.86A3.54,3.54,0,0,0,33.07,66Z"/><text class="cls-2" transform="translate(54.39 52.13)">Delphi</text></svg>