<svg id="Layer_1" data-name="Layer 1" xmlns="http://www.w3.org/2000/svg" viewBox="0 0 278.32 77.77"><defs><style>.cls-1{fill:#ed1c24;stroke:#414042;stroke-miterlimit:10;stroke-width:2px;}.cls-2{fill:#414042;}</style></defs><path class="cls-1" d="M17.49,12.75,15.4,14.91a3.45,3.45,0,0,0-1,2.38V60.76a3.46,3.46,0,0,0,1,2.43l2.09,2.09a3.43,3.43,0,0,0,5.85-2.43V15.13A3.43,3.43,0,0,0,17.49,12.75Z"/><path class="cls-1" d="M45.5,33l.62-2.47a3.58,3.58,0,0,0-.37-2.66l-8-13.95a3.63,3.63,0,0,0-2.18-1.67l-2.42-.65a3.59,3.59,0,0,0-4,5.26l9.85,17.06A3.58,3.58,0,0,0,45.5,33Z"/><path class="cls-1" d="M33.07,66l2.58-.73a3.57,3.57,0,0,0,2.09-1.64l8.07-14A3.53,3.53,0,0,0,46.17,47l-.69-2.55A3.54,3.54,0,0,0,39,43.6L29,60.86A3.54,3.54,0,0,0,33.07,66Z"/><path class="cls-2" d="M57.46,24.13h8.66q9.27,0,12.71,2.95t3.45,9.77q0,7.56-3.56,11.42T66.65,52.13l-10,0a4.79,4.79,0,0,1-.37-1.75,1,1,0,0,1,.31-.81,1.4,1.4,0,0,1,.9-.25H59q.12-2.66.12-13.76,0-6-.12-8.64H56.62a4.64,4.64,0,0,1-.37-1.72,1,1,0,0,1,.31-.83A1.4,1.4,0,0,1,57.46,24.13Zm10.63,3.94a13.75,13.75,0,0,0-2.57.21q-.1,2.87-.1,13.3,0,4.88.59,5.74c.4.58,1.43.87,3.1.87a5.46,5.46,0,0,0,4.53-1.95q1.56-2,1.56-7.83t-1.83-8.07A6.42,6.42,0,0,0,68.09,28.07Z"/><path class="cls-2" d="M96.43,31.25c2.84,0,4.91.65,6.19,1.94s1.93,3.33,1.93,6.12a4.32,4.32,0,0,1-.82,2.95c-.55.59-1.75.88-3.59.88H92.51a7.14,7.14,0,0,0,1.21,4.22c.77,1,2.11,1.53,4,1.53a12,12,0,0,0,5.82-1.65,3.11,3.11,0,0,1,1.07,2.26c0,1.09-.8,1.86-2.41,2.29a22,22,0,0,1-5.65.64q-5.58,0-8.1-2.25T86,42.73c0-3.59.94-6.4,2.84-8.44A9.91,9.91,0,0,1,96.43,31.25Zm-.82,3.55A2.6,2.6,0,0,0,93.29,36a8.42,8.42,0,0,0-.82,4.28h1.09A33.72,33.72,0,0,0,97,40.18q1.2-.13,1.41-.45a2.13,2.13,0,0,0,.2-1.06,4.49,4.49,0,0,0-.8-2.86A2.69,2.69,0,0,0,95.61,34.8Z"/><path class="cls-2" d="M110.19,42.24c0-6.21,0-10.1-.08-11.69a18.3,18.3,0,0,0-.31-3.25,1.59,1.59,0,0,0-.79-1.13,3.63,3.63,0,0,0-1.47-.25,4.25,4.25,0,0,1-.37-1.68,1,1,0,0,1,.65-1.1A18.79,18.79,0,0,1,112,22.9a16.18,16.18,0,0,1,3,.18c.53.11.83.33.91.64a6.5,6.5,0,0,1,.11,1.34V40.83q0,5.87.1,8.49h2.63a3.26,3.26,0,0,1,.35,1.51,1.37,1.37,0,0,1-.3,1,1.71,1.71,0,0,1-1.16.29h-10a4.28,4.28,0,0,1-.37-1.62,1.25,1.25,0,0,1,.29-.92,1.31,1.31,0,0,1,.92-.27h1.68Q110.2,46.7,110.19,42.24Z"/><path class="cls-2" d="M127.58,31.47a7,7,0,0,1,0,1.71A27.35,27.35,0,0,1,131,31.79a12.41,12.41,0,0,1,3.73-.54q4,0,5.83,2.18t1.88,6.9q0,6.35-2.8,9.27a9.85,9.85,0,0,1-7.48,2.94,15.39,15.39,0,0,1-1.87-.09c-.48-.05-.83-.11-1.08-.16q0,3,.1,6.05h2.85a3.18,3.18,0,0,1,.35,1.52,1.34,1.34,0,0,1-.3,1,1.68,1.68,0,0,1-1.15.29H121a4,4,0,0,1-.37-1.62,1.22,1.22,0,0,1,.28-.91,1.29,1.29,0,0,1,.93-.28h1.49q.11-3,.11-8v-8c0-3.83-.19-6.09-.55-6.78a1.94,1.94,0,0,0-1.89-1,3.91,3.91,0,0,1-.37-1.64,1,1,0,0,1,.54-1A46,46,0,0,1,127.58,31.47Zm1.66,16.62a8,8,0,0,0,1.36.64,5.31,5.31,0,0,0,1.78.26,3.14,3.14,0,0,0,2.69-1.22q.92-1.23.92-5.26,0-4.8-.94-6.26a2.91,2.91,0,0,0-2.59-1.45,3.19,3.19,0,0,0-1.76.5,2.7,2.7,0,0,0-1.13,1.63,11.58,11.58,0,0,0-.33,3.12Z"/><path class="cls-2" d="M147.59,31.39c0-.53,0-1.2-.07-2a11.32,11.32,0,0,0-.29-2.08,1.61,1.61,0,0,0-.79-1.13,3.7,3.7,0,0,0-1.49-.25,4.4,4.4,0,0,1-.35-1.68,1,1,0,0,1,.64-1.1,18.71,18.71,0,0,1,4.14-.24,15.84,15.84,0,0,1,3,.18c.53.11.83.33.91.64a5.19,5.19,0,0,1,.13,1.34v8.12a16.17,16.17,0,0,1,3.08-1.33,11.58,11.58,0,0,1,3.6-.58,5.88,5.88,0,0,1,4.09,1.27q1.41,1.27,1.41,5.13,0,10.08.37,10.88a1.56,1.56,0,0,0,1.6.77,4,4,0,0,1,.31,1.53,1.05,1.05,0,0,1-.49,1,4.18,4.18,0,0,1-1.83.27c-2.22,0-3.62,0-4.21-.11a1.52,1.52,0,0,1-1.21-.66,4.16,4.16,0,0,1-.32-1.9V42.22q0-4.19-.77-5.61a2.63,2.63,0,0,0-2.49-1.42,3.06,3.06,0,0,0-2.3.85c-.56.57-.84,1.75-.84,3.56v4.12c0,1.72,0,3.59.1,5.6h2.44a3.26,3.26,0,0,1,.35,1.51,1.37,1.37,0,0,1-.3,1,1.71,1.71,0,0,1-1.16.29h-9.66a4.28,4.28,0,0,1-.37-1.62,1.25,1.25,0,0,1,.29-.92,1.31,1.31,0,0,1,.92-.27h1.5q.1-3.39.1-6.36Z"/><path class="cls-2" d="M179.05,49.32h2.42a3.14,3.14,0,0,1,.35,1.51,1.37,1.37,0,0,1-.3,1,1.68,1.68,0,0,1-1.15.29h-9.85a4.43,4.43,0,0,1-.35-1.62,1.25,1.25,0,0,1,.29-.92,1.31,1.31,0,0,1,.92-.27h1.68c.07-1.75.11-3.62.11-5.6,0-3,0-5-.07-6a8.32,8.32,0,0,0-.32-2.17,1.32,1.32,0,0,0-.76-.87,5.13,5.13,0,0,0-1.5-.17,2.54,2.54,0,0,1-.35-1.33,1.3,1.3,0,0,1,1-1.42,17.05,17.05,0,0,1,3.83-.27,17.24,17.24,0,0,1,3,.17c.52.11.82.32.9.65a6.5,6.5,0,0,1,.11,1.34V43.72C178.94,45.7,179,47.57,179.05,49.32ZM175.3,28.81a4.08,4.08,0,0,1-2.67-.71,2.52,2.52,0,0,1-.82-2,2.76,2.76,0,0,1,1.05-2.22,4.53,4.53,0,0,1,3-.88,4.09,4.09,0,0,1,2.79.75,2.53,2.53,0,0,1,.82,2,2.88,2.88,0,0,1-1,2.22A4.71,4.71,0,0,1,175.3,28.81Z"/><path class="cls-2" d="M185.72,24.13h10.6a3.66,3.66,0,0,1,.35,1.52,1.49,1.49,0,0,1-.27,1,1.15,1.15,0,0,1-.86.27H194c-.07,1.75-.09,4.68-.08,8.8h10.19q0-6.18-.14-8.8h-2.32a4.8,4.8,0,0,1-.35-1.72,1,1,0,0,1,.3-.83,1.35,1.35,0,0,1,.89-.26h10.61a3.64,3.64,0,0,1,.34,1.52,1.55,1.55,0,0,1-.26,1,1.15,1.15,0,0,1-.84.27h-1.79q-.12,2.63-.1,8.66,0,11.09.12,13.72h2.53a3.5,3.5,0,0,1,.34,1.51,1.53,1.53,0,0,1-.26,1,1.11,1.11,0,0,1-.84.29H201.61a5,5,0,0,1-.35-1.75,1,1,0,0,1,.3-.81,1.35,1.35,0,0,1,.89-.25H204q.11-2.18.12-10.16H193.88c0,5.32.05,8.71.1,10.16h2.34a3.51,3.51,0,0,1,.35,1.51,1.47,1.47,0,0,1-.27,1,1.11,1.11,0,0,1-.86.29H184.88a4.59,4.59,0,0,1-.37-1.75,1,1,0,0,1,.31-.81,1.36,1.36,0,0,1,.9-.25h1.7q.11-2.62.1-13.74,0-6-.12-8.64h-2.52a4.45,4.45,0,0,1-.37-1.72,1,1,0,0,1,.31-.83A1.36,1.36,0,0,1,185.72,24.13Z"/><path class="cls-2" d="M236,43.06a24.2,24.2,0,0,0,.3,5.06,1.26,1.26,0,0,0,1.51.87,3.33,3.33,0,0,1,.29,1.29q0,1-1.5,1.53a8.39,8.39,0,0,1-2.75.52,2.28,2.28,0,0,1-1.35-.3,7,7,0,0,1-1.21-1.48A21.85,21.85,0,0,1,227.63,52a13,13,0,0,1-3.75.52,5.81,5.81,0,0,1-4.12-1.39q-1.5-1.38-1.5-5.63,0-6.33-.07-7.82a7.91,7.91,0,0,0-.32-2.17,1.38,1.38,0,0,0-.65-.87,3.34,3.34,0,0,0-1.19-.17,2.38,2.38,0,0,1-.37-1.33c0-.63.38-1.07,1.15-1.32a13.08,13.08,0,0,1,3.63-.37,10.25,10.25,0,0,1,2.52.22,1.26,1.26,0,0,1,.91.65,12.06,12.06,0,0,1,.18,2.89v7.3c0,2.66.25,4.41.76,5.23A2.38,2.38,0,0,0,227,49a4.19,4.19,0,0,0,1.93-.46,2,2,0,0,0,1.1-1.21,10.31,10.31,0,0,0,.23-2.7c0-3.62,0-5.93,0-6.91a8.34,8.34,0,0,0-.23-2.17,1.41,1.41,0,0,0-.52-.88,2.58,2.58,0,0,0-1.1-.17,2.46,2.46,0,0,1-.37-1.33c0-.63.39-1.07,1.16-1.32a11.46,11.46,0,0,1,3.25-.37,10.4,10.4,0,0,1,2.53.22,1.22,1.22,0,0,1,.91.74,14.75,14.75,0,0,1,.17,3Z"/><path class="cls-2" d="M242.77,42.24c0-6.21,0-10.1-.07-11.69a16.53,16.53,0,0,0-.31-3.25,1.59,1.59,0,0,0-.8-1.13,3.55,3.55,0,0,0-1.46-.25,4.22,4.22,0,0,1-.35-1.68,1,1,0,0,1,.63-1.1,18.9,18.9,0,0,1,4.15-.24,15.92,15.92,0,0,1,3,.18c.52.11.83.33.91.64a5.77,5.77,0,0,1,.12,1.34l-.36,7.6a14.51,14.51,0,0,1,2.84-1,13.64,13.64,0,0,1,3.39-.4,7.08,7.08,0,0,1,5.36,2.09c1.34,1.4,2,3.79,2,7.18q0,6-2.82,9a10,10,0,0,1-7.64,3,15.29,15.29,0,0,1-3-.28,10,10,0,0,1-2.08-.61l-.89.66a5.4,5.4,0,0,1-2.27-.29c-.32-.19-.47-.58-.47-1.19s0-1.83.09-3.82S242.77,43.43,242.77,42.24ZM248.53,41l0,6.95a3.65,3.65,0,0,0,1.4.8,5.66,5.66,0,0,0,1.8.29,3.17,3.17,0,0,0,2.64-1.15q.92-1.16.91-5.62a14,14,0,0,0-.86-5.75,2.7,2.7,0,0,0-2.54-1.67,3.34,3.34,0,0,0-1.84.48,3,3,0,0,0-1.13,1.55A15.16,15.16,0,0,0,248.53,41Z"/></svg>